<svg width="175" height="22" viewBox="0 0 175 22" fill="none" xmlns="http://www.w3.org/2000/svg">
<path d="M8.5614 22C13.2448 22 16.9737 19.2885 16.9737 15.1289C16.9737 11.1849 13.5431 9.36695 9.54581 8.7507C7.84547 8.5042 4.17629 7.85714 4.17629 6.31653C4.17629 5.17647 5.9363 4.40616 8.29293 4.40616C10.918 4.40616 12.7974 5.36135 12.7974 6.59384H16.5859C16.5859 2.86555 13.1255 0 8.41225 0C3.87799 0 0.357968 2.61905 0.357968 6.56303C0.357968 10.3838 3.63934 12.3866 7.39801 12.972C10.0529 13.4034 13.1553 13.958 13.1553 15.5294C13.1553 16.7619 11.1865 17.5938 8.71056 17.5938C5.87664 17.5938 3.7885 16.5154 3.7885 15.1289H0C0 19.042 3.63934 22 8.5614 22Z" fill="#F3F3F3"/>
<path d="M19.777 21.6303H23.4462V7.45658H24.1025L28.8754 17.4706H32.5147L37.3175 7.45658H37.9737V21.6303H41.6429V0.369747H36.1541L30.9337 10.7843H30.2774L25.0869 0.369747H19.777V21.6303Z" fill="#F3F3F3"/>
<path d="M45.5876 21.6303H49.2567V0.369747H45.5876V21.6303Z" fill="#F3F3F3"/>
<path d="M56.8601 16.9776V0.369747H53.1909V21.6303H66.7042V16.9776H56.8601Z" fill="#F3F3F3"/>
<path d="M72.9989 16.9776V13.1877H83.201V8.68908H72.9989V5.02241H84.1854V0.369747H69.3297V21.6303H84.3346V16.9776H72.9989Z" fill="#F3F3F3"/>
<path d="M94.8198 22C99.5032 22 103.232 19.2885 103.232 15.1289C103.232 11.1849 99.8015 9.36695 95.8042 8.7507C94.1039 8.5042 90.4347 7.85714 90.4347 6.31653C90.4347 5.17647 92.1947 4.40616 94.5513 4.40616C97.1764 4.40616 99.0558 5.36135 99.0558 6.59384H102.844C102.844 2.86555 99.3839 0 94.6707 0C90.1364 0 86.6164 2.61905 86.6164 6.56303C86.6164 10.3838 89.8978 12.3866 93.6564 12.972C96.3113 13.4034 99.4137 13.958 99.4137 15.5294C99.4137 16.7619 97.4449 17.5938 94.969 17.5938C92.1351 17.5938 90.0469 16.5154 90.0469 15.1289H86.2584C86.2584 19.042 89.8978 22 94.8198 22Z" fill="#F3F3F3"/>
<path d="M108.185 21.9384C110.094 21.9384 111.496 20.6443 111.496 18.9496C111.496 17.2549 110.094 15.93 108.185 15.93C106.305 15.93 104.873 17.2549 104.873 18.9496C104.873 20.6443 106.305 21.9384 108.185 21.9384Z" fill="#F3F3F3"/>
<path d="M116.405 21.6303H120.581L124.43 8.7507H125.354L129.202 21.6303H133.379L139.971 0.369747H135.825L131.35 14.3894H130.694L126.398 0.369747H123.147L118.881 14.3894H118.255L113.72 0.369747H109.813L116.405 21.6303Z" fill="#F3F3F3"/>
<path d="M158.194 0.369747H141.459V5.02241H147.992V21.6303H151.661V5.02241H158.194V0.369747Z" fill="#F3F3F3"/>
<path d="M175 5.02241V0.369747H160.89V21.6303H164.559V13.4958H173.837V8.84314H164.559V5.02241H175Z" fill="#F3F3F3"/>
</svg>
