<svg width="40" height="40" viewBox="0 0 40 40" fill="none" xmlns="http://www.w3.org/2000/svg">
<g clip-path="url(#clip0_134_5)">
<path d="M14.4641 19.0104C17.9952 19.0104 20.8578 14.7548 20.8578 9.5052C20.8578 4.25562 17.9952 0 14.4641 0C10.9329 0 8.07031 4.25562 8.07031 9.5052C8.07031 14.7548 10.9329 19.0104 14.4641 19.0104Z" fill="#F9F6E1"/>
<path d="M13.5981 6.90618C13.5981 6.97939 13.8055 7.34544 13.5981 7.00379C13.3907 6.66214 13.5981 7.00379 13.5981 7.00379C13.5981 7.00379 13.7323 7.40645 13.7933 7.61388C13.909 8.01365 13.9947 8.42152 14.0495 8.83406L13.9641 8.23617C14.0678 9.01365 14.0678 9.80145 13.9641 10.5789L14.0495 9.99323C13.971 10.5311 13.8486 11.0616 13.6835 11.5795C13.6835 11.7015 13.6103 11.8235 13.5615 11.9455C13.3785 12.4214 13.6835 11.7015 13.5615 11.9455C13.4395 12.1896 13.3174 12.458 13.171 12.702C12.8828 13.2175 12.8057 13.8246 12.9559 14.3958C13.1061 14.967 13.4718 15.4576 13.9763 15.7647C14.4918 16.0529 15.099 16.13 15.6701 15.9798C16.2413 15.8296 16.732 15.4638 17.039 14.9594C17.9223 13.3954 18.4162 11.6419 18.4788 9.84681C18.5282 8.05435 18.1474 6.27614 17.3684 4.66105C17.0744 4.16024 16.5977 3.79287 16.0384 3.6361C15.4543 3.48064 14.8326 3.55945 14.3058 3.85573C13.806 4.16693 13.4441 4.65754 13.2943 5.22698C13.1446 5.79642 13.2184 6.40157 13.5005 6.91838L13.5981 6.90618Z" fill="#3A5897"/>
<path d="M25.6516 19.0104C29.1827 19.0104 32.0453 14.7548 32.0453 9.5052C32.0453 4.25562 29.1827 0 25.6516 0C22.1204 0 19.2578 4.25562 19.2578 9.5052C19.2578 14.7548 22.1204 19.0104 25.6516 19.0104Z" fill="#F9F6E1"/>
<path d="M24.7986 6.90627C24.7986 6.97948 24.9938 7.34554 24.7986 7.00389C24.6034 6.66224 24.7986 7.00389 24.7986 7.00389C24.7986 7.00389 24.945 7.40655 25.006 7.61398C25.1178 8.01403 25.1993 8.4219 25.2501 8.83416L25.1769 8.23627C25.2745 9.01413 25.2745 9.80115 25.1769 10.579L25.2623 9.99333C25.1937 10.5319 25.0752 11.0629 24.9084 11.5796C24.9084 11.7016 24.823 11.8236 24.7742 11.9456C24.6034 12.4215 24.8962 11.7016 24.7742 11.9456C24.6522 12.1897 24.5302 12.4581 24.396 12.7021C24.1046 13.2169 24.0258 13.8251 24.1762 14.3971C24.3266 14.9692 24.6944 15.4599 25.2013 15.7648C25.7167 16.053 26.3239 16.1301 26.895 15.9799C27.4662 15.8297 27.9569 15.4639 28.2639 14.9595C29.142 13.3934 29.6355 11.6411 29.7037 9.84691C29.747 8.05501 29.3666 6.27822 28.5934 4.66114C28.2917 4.16208 27.8121 3.79585 27.2512 3.63619C26.7039 3.488 26.121 3.5489 25.6161 3.80702C25.1163 4.11822 24.7544 4.60882 24.6047 5.17826C24.455 5.74771 24.5287 6.35286 24.8108 6.86967L24.7986 6.90627Z" fill="#3A5897"/>
</g>
<g clip-path="url(#clip1_134_5)">
<path d="M31.3203 23.0016C26.9024 26.0498 24.1087 28.9193 19.7665 28.9193C15.4243 28.9193 12.636 26.0498 8.21261 23.0016C0.957604 17.9989 -4.24001 30.6464 4.80168 35.1943C9.30072 37.6049 14.3439 38.8186 19.447 38.7189C25.1157 38.7189 29.4037 37.3708 34.7367 35.1943C44.8179 31.0741 38.5808 17.9772 31.3203 23.0016Z" fill="#F9F6E1"/>
<mask id="mask0_134_5" style="mask-type:alpha" maskUnits="userSpaceOnUse" x="3" y="23" width="34" height="17">
<path d="M9.30193 23.8359C4.51579 26.8787 4.1747 31.6323 3.75781 34.7455" stroke="#959595" stroke-width="0.837541" stroke-linecap="round" stroke-linejoin="round"/>
<path d="M30.5254 23.8359C35.3061 26.8787 35.6526 31.6323 36.0695 34.7455" stroke="#959595" stroke-width="0.837541" stroke-linecap="round" stroke-linejoin="round"/>
<path d="M16.5625 27.3772C13.8879 30.0247 13.6659 36.0399 14.1099 38.9148" stroke="#959595" stroke-width="1.00005" stroke-linecap="round" stroke-linejoin="round"/>
<path d="M23.4453 27.4146C26.1903 29.9863 26.5801 36.0069 26.212 38.8818" stroke="#959595" stroke-width="1.00005" stroke-linecap="round" stroke-linejoin="round"/>
</mask>
<g mask="url(#mask0_134_5)">
<path d="M31.3223 23.0023C26.9043 26.0505 24.1106 28.92 19.7684 28.92C15.4263 28.92 12.638 26.0505 8.21456 23.0023C0.959557 17.9996 -4.23805 30.6471 4.80363 35.195C9.30267 37.6057 14.3458 38.8194 19.449 38.7197C25.1176 38.7197 29.4057 37.3715 34.7387 35.195C44.8199 31.0748 38.5827 17.978 31.3223 23.0023Z" fill="#3A5897"/>
</g>
</g>
<defs>
<clipPath id="clip0_134_5">
<rect width="23.9765" height="19.0104" fill="white" transform="translate(8.07031)"/>
</clipPath>
<clipPath id="clip1_134_5">
<rect width="40" height="17.7152" fill="white" transform="translate(0 21.8488)"/>
</clipPath>
</defs>
</svg>
