<svg width="2939" height="79" viewBox="0 0 2939 79" fill="none" xmlns="http://www.w3.org/2000/svg">
<g clip-path="url(#clip0_162_51)">
<path d="M24 78H42.0227V1.70768H24V78Z" fill="#F9F6E1"/>
<path d="M116.497 1.70768H53.4726V22.9369H76.0286V78H93.9407V22.9369H116.497V1.70768Z" fill="#F9F6E1"/>
<path d="M171.175 78H190.525L201.14 40.6278H204.457L214.961 78H234.421L258.193 1.70768H237.959L224.359 44.8294H222.369L209.764 1.70768H194.616L182.232 44.8294H180.242L166.421 1.70768H147.403L171.175 78Z" fill="#F9F6E1"/>
<path d="M299.878 79.3269C322.987 79.3269 340.567 62.2993 340.567 39.8539C340.567 17.4084 322.987 0.380859 299.878 0.380859C276.659 0.380859 259.189 17.4084 259.189 39.8539C259.189 62.2993 276.659 79.3269 299.878 79.3269ZM299.878 57.6554C287.273 57.6554 277.764 50.0262 277.764 39.8539C277.764 29.6815 287.273 22.0523 299.878 22.0523C312.483 22.0523 321.992 29.6815 321.992 39.8539C321.992 50.0262 312.483 57.6554 299.878 57.6554Z" fill="#F9F6E1"/>
<path d="M395.993 78H417.775L401.853 53.3432C410.698 48.8099 416.448 39.8539 416.448 29.1287C416.448 13.428 404.064 1.70768 387.81 1.70768H352.207V78H370.23V56.6603H382.282L395.993 78ZM370.23 22.9369H387.368C394.113 22.9369 397.872 25.1482 397.872 29.1287C397.872 33.2197 394.113 35.4311 387.368 35.4311H370.23V22.9369Z" fill="#F9F6E1"/>
<path d="M477.954 78H500.289L469.219 37.0896L499.626 1.70768H471.762L448.764 28.3547H446V1.70768H427.977V78H446V58.9822L456.283 50.1367L477.954 78Z" fill="#F9F6E1"/>
<path d="M533.166 79.3269C551.631 79.3269 565.894 68.8228 565.894 53.2327C565.894 37.7531 551.741 31.5612 538.141 29.9027C531.839 29.2393 519.677 27.4702 519.677 24.2637C519.677 21.9417 524.763 20.3938 531.95 20.3938C540.353 20.3938 545.992 22.4946 545.992 25.2588H564.567C564.567 11.3271 551.078 0.380859 532.613 0.380859C514.811 0.380859 501.101 10.4426 501.101 25.3694C501.101 40.4067 515.033 47.4831 527.416 49.1416C538.031 50.4684 547.319 51.6847 547.319 55.0018C547.319 57.5448 541.459 59.3139 533.94 59.3139C524.873 59.3139 518.46 56.6603 518.46 53.4538H499.885C499.885 68.27 514.037 79.3269 533.166 79.3269Z" fill="#F9F6E1"/>
<path d="M651.352 1.70768V28.4653H620.724V1.70768H602.701V78H620.724V50.8001H651.352V78H669.374V1.70768H651.352Z" fill="#F7C2AC"/>
<path d="M721.672 79.3269C744.78 79.3269 762.361 62.2993 762.361 39.8539C762.361 17.4084 744.78 0.380859 721.672 0.380859C698.452 0.380859 680.982 17.4084 680.982 39.8539C680.982 62.2993 698.452 79.3269 721.672 79.3269ZM721.672 57.6554C709.067 57.6554 699.558 50.0262 699.558 39.8539C699.558 29.6815 709.067 22.0523 721.672 22.0523C734.276 22.0523 743.785 29.6815 743.785 39.8539C743.785 50.0262 734.276 57.6554 721.672 57.6554Z" fill="#F7C2AC"/>
<path d="M787.159 78H806.509L817.123 40.6278H820.44L830.944 78H850.404L874.177 1.70768H853.943L840.343 44.8294H838.352L825.748 1.70768H810.6L798.216 44.8294H796.226L782.405 1.70768H763.387L787.159 78Z" fill="#F7C2AC"/>
<path d="M908.588 78H926.61V1.70768H908.588V78Z" fill="#F7C2AC"/>
<path d="M1001.08 1.70768H938.06V22.9369H960.616V78H978.528V22.9369H1001.08V1.70768Z" fill="#F7C2AC"/>
<path d="M1055.76 78H1075.11L1085.73 40.6278H1089.04L1099.55 78H1119.01L1142.78 1.70768H1122.55L1108.95 44.8294H1106.96L1094.35 1.70768H1079.2L1066.82 44.8294H1064.83L1051.01 1.70768H1031.99L1055.76 78Z" fill="#F7C2AC"/>
<path d="M1184.47 79.3269C1207.57 79.3269 1225.16 62.2993 1225.16 39.8539C1225.16 17.4084 1207.57 0.380859 1184.47 0.380859C1161.25 0.380859 1143.78 17.4084 1143.78 39.8539C1143.78 62.2993 1161.25 79.3269 1184.47 79.3269ZM1184.47 57.6554C1171.86 57.6554 1162.35 50.0262 1162.35 39.8539C1162.35 29.6815 1171.86 22.0523 1184.47 22.0523C1197.07 22.0523 1206.58 29.6815 1206.58 39.8539C1206.58 50.0262 1197.07 57.6554 1184.47 57.6554Z" fill="#F7C2AC"/>
<path d="M1280.58 78H1302.36L1286.44 53.3432C1295.29 48.8099 1301.04 39.8539 1301.04 29.1287C1301.04 13.428 1288.65 1.70768 1272.4 1.70768H1236.8V78H1254.82V56.6603H1266.87L1280.58 78ZM1254.82 22.9369H1271.96C1278.7 22.9369 1282.46 25.1482 1282.46 29.1287C1282.46 33.2197 1278.7 35.4311 1271.96 35.4311H1254.82V22.9369Z" fill="#F7C2AC"/>
<path d="M1362.54 78H1384.88L1353.81 37.0896L1384.21 1.70768H1356.35L1333.35 28.3547H1330.59V1.70768H1312.56V78H1330.59V58.9822L1340.87 50.1367L1362.54 78Z" fill="#F7C2AC"/>
<path d="M1417.75 79.3269C1436.22 79.3269 1450.48 68.8228 1450.48 53.2327C1450.48 37.7531 1436.33 31.5612 1422.73 29.9027C1416.43 29.2393 1404.26 27.4702 1404.26 24.2637C1404.26 21.9417 1409.35 20.3938 1416.54 20.3938C1424.94 20.3938 1430.58 22.4946 1430.58 25.2588H1449.16C1449.16 11.3271 1435.67 0.380859 1417.2 0.380859C1399.4 0.380859 1385.69 10.4426 1385.69 25.3694C1385.69 40.4067 1399.62 47.4831 1412 49.1416C1422.62 50.4684 1431.91 51.6847 1431.91 55.0018C1431.91 57.5448 1426.05 59.3139 1418.53 59.3139C1409.46 59.3139 1403.05 56.6603 1403.05 53.4538H1384.47C1384.47 68.27 1398.63 79.3269 1417.75 79.3269Z" fill="#F7C2AC"/>
<path d="M1489.14 77.6192H1507.16V1.32682H1489.14V77.6192Z" fill="#F9F6E1"/>
<path d="M1581.64 1.32682H1518.61V22.556H1541.17V77.6192H1559.08V22.556H1581.64V1.32682Z" fill="#F9F6E1"/>
<path d="M1636.32 77.6192H1655.67L1666.28 40.247H1669.6L1680.1 77.6192H1699.56L1723.33 1.32682H1703.1L1689.5 44.4486H1687.51L1674.9 1.32682H1659.76L1647.37 44.4486H1645.38L1631.56 1.32682H1612.54L1636.32 77.6192Z" fill="#F9F6E1"/>
<path d="M1765.02 78.946C1788.13 78.946 1805.71 61.9184 1805.71 39.473C1805.71 17.0276 1788.13 0 1765.02 0C1741.8 0 1724.33 17.0276 1724.33 39.473C1724.33 61.9184 1741.8 78.946 1765.02 78.946ZM1765.02 57.2745C1752.41 57.2745 1742.91 49.6453 1742.91 39.473C1742.91 29.3007 1752.41 21.6714 1765.02 21.6714C1777.62 21.6714 1787.13 29.3007 1787.13 39.473C1787.13 49.6453 1777.62 57.2745 1765.02 57.2745Z" fill="#F9F6E1"/>
<path d="M1861.13 77.6192H1882.92L1866.99 52.9624C1875.84 48.4291 1881.59 39.473 1881.59 28.7478C1881.59 13.0471 1869.2 1.32682 1852.95 1.32682H1817.35V77.6192H1835.37V56.2794H1847.42L1861.13 77.6192ZM1835.37 22.556H1852.51C1859.25 22.556 1863.01 24.7674 1863.01 28.7478C1863.01 32.8389 1859.25 35.0503 1852.51 35.0503H1835.37V22.556Z" fill="#F9F6E1"/>
<path d="M1943.09 77.6192H1965.43L1934.36 36.7088L1964.77 1.32682H1936.9L1913.9 27.9739H1911.14V1.32682H1893.12V77.6192H1911.14V58.6014L1921.42 49.7559L1943.09 77.6192Z" fill="#F9F6E1"/>
<path d="M1998.31 78.946C2016.77 78.946 2031.03 68.442 2031.03 52.8518C2031.03 37.3722 2016.88 31.1803 2003.28 29.5218C1996.98 28.8584 1984.82 27.0893 1984.82 23.8828C1984.82 21.5609 1989.9 20.0129 1997.09 20.0129C2005.49 20.0129 2011.13 22.1137 2011.13 24.8779H2029.71C2029.71 10.9463 2016.22 0 1997.75 0C1979.95 0 1966.24 10.0617 1966.24 24.9885C1966.24 40.0258 1980.17 47.1022 1992.56 48.7608C2003.17 50.0876 2012.46 51.3038 2012.46 54.6209C2012.46 57.164 2006.6 58.9331 1999.08 58.9331C1990.01 58.9331 1983.6 56.2794 1983.6 53.0729H1965.03C1965.03 67.8891 1979.18 78.946 1998.31 78.946Z" fill="#F9F6E1"/>
<path d="M2116.49 1.32682V28.0844H2085.86V1.32682H2067.84V77.6192H2085.86V50.4193H2116.49V77.6192H2134.51V1.32682H2116.49Z" fill="#F7C2AC"/>
<path d="M2186.81 78.946C2209.92 78.946 2227.5 61.9184 2227.5 39.473C2227.5 17.0276 2209.92 0 2186.81 0C2163.59 0 2146.12 17.0276 2146.12 39.473C2146.12 61.9184 2163.59 78.946 2186.81 78.946ZM2186.81 57.2745C2174.21 57.2745 2164.7 49.6453 2164.7 39.473C2164.7 29.3007 2174.21 21.6714 2186.81 21.6714C2199.42 21.6714 2208.93 29.3007 2208.93 39.473C2208.93 49.6453 2199.42 57.2745 2186.81 57.2745Z" fill="#F7C2AC"/>
<path d="M2252.3 77.6192H2271.65L2282.26 40.247H2285.58L2296.09 77.6192H2315.55L2339.32 1.32682H2319.08L2305.48 44.4486H2303.49L2290.89 1.32682H2275.74L2263.36 44.4486H2261.37L2247.55 1.32682H2228.53L2252.3 77.6192Z" fill="#F7C2AC"/>
<path d="M2373.73 77.6192H2391.75V1.32682H2373.73V77.6192Z" fill="#F7C2AC"/>
<path d="M2466.23 1.32682H2403.2V22.556H2425.76V77.6192H2443.67V22.556H2466.23V1.32682Z" fill="#F7C2AC"/>
<path d="M2520.9 77.6192H2540.25L2550.87 40.247H2554.19L2564.69 77.6192H2584.15L2607.92 1.32682H2587.69L2574.09 44.4486H2572.1L2559.49 1.32682H2544.34L2531.96 44.4486H2529.97L2516.15 1.32682H2497.13L2520.9 77.6192Z" fill="#F7C2AC"/>
<path d="M2649.61 78.946C2672.72 78.946 2690.3 61.9184 2690.3 39.473C2690.3 17.0276 2672.72 0 2649.61 0C2626.39 0 2608.92 17.0276 2608.92 39.473C2608.92 61.9184 2626.39 78.946 2649.61 78.946ZM2649.61 57.2745C2637 57.2745 2627.49 49.6453 2627.49 39.473C2627.49 29.3007 2637 21.6714 2649.61 21.6714C2662.21 21.6714 2671.72 29.3007 2671.72 39.473C2671.72 49.6453 2662.21 57.2745 2649.61 57.2745Z" fill="#F7C2AC"/>
<path d="M2745.72 77.6192H2767.5L2751.58 52.9624C2760.43 48.4291 2766.18 39.473 2766.18 28.7478C2766.18 13.0471 2753.79 1.32682 2737.54 1.32682H2701.94V77.6192H2719.96V56.2794H2732.01L2745.72 77.6192ZM2719.96 22.556H2737.1C2743.84 22.556 2747.6 24.7674 2747.6 28.7478C2747.6 32.8389 2743.84 35.0503 2737.1 35.0503H2719.96V22.556Z" fill="#F7C2AC"/>
<path d="M2827.68 77.6192H2850.02L2818.95 36.7088L2849.35 1.32682H2821.49L2798.49 27.9739H2795.73V1.32682H2777.71V77.6192H2795.73V58.6014L2806.01 49.7559L2827.68 77.6192Z" fill="#F7C2AC"/>
<path d="M2882.89 78.946C2901.36 78.946 2915.62 68.442 2915.62 52.8518C2915.62 37.3722 2901.47 31.1803 2887.87 29.5218C2881.57 28.8584 2869.4 27.0893 2869.4 23.8828C2869.4 21.5609 2874.49 20.0129 2881.68 20.0129C2890.08 20.0129 2895.72 22.1137 2895.72 24.8779H2914.3C2914.3 10.9463 2900.81 0 2882.34 0C2864.54 0 2850.83 10.0617 2850.83 24.9885C2850.83 40.0258 2864.76 47.1022 2877.14 48.7608C2887.76 50.0876 2897.05 51.3038 2897.05 54.6209C2897.05 57.164 2891.19 58.9331 2883.67 58.9331C2874.6 58.9331 2868.19 56.2794 2868.19 53.0729H2849.61C2849.61 67.8891 2863.77 78.946 2882.89 78.946Z" fill="#F7C2AC"/>
</g>
<defs>
<clipPath id="clip0_162_51">
<rect width="2939" height="79" fill="white"/>
</clipPath>
</defs>
</svg>
