<svg width="1013" height="40" viewBox="0 0 1013 40" fill="none" xmlns="http://www.w3.org/2000/svg">
<g clip-path="url(#clip0_160_44)">
<path d="M14.4641 19.0104C17.9952 19.0104 20.8578 14.7548 20.8578 9.5052C20.8578 4.25562 17.9952 0 14.4641 0C10.9329 0 8.07031 4.25562 8.07031 9.5052C8.07031 14.7548 10.9329 19.0104 14.4641 19.0104Z" fill="#F9F6E1"/>
<path d="M13.5981 6.90618C13.5981 6.97939 13.8055 7.34544 13.5981 7.00379C13.3907 6.66214 13.5981 7.00379 13.5981 7.00379C13.5981 7.00379 13.7323 7.40645 13.7933 7.61388C13.909 8.01365 13.9947 8.42152 14.0495 8.83406L13.9641 8.23617C14.0678 9.01365 14.0678 9.80145 13.9641 10.5789L14.0495 9.99323C13.971 10.5311 13.8486 11.0616 13.6835 11.5795C13.6835 11.7015 13.6103 11.8235 13.5615 11.9455C13.3785 12.4214 13.6835 11.7015 13.5615 11.9455C13.4395 12.1896 13.3174 12.458 13.171 12.702C12.8828 13.2175 12.8057 13.8246 12.9559 14.3958C13.1061 14.967 13.4718 15.4576 13.9763 15.7647C14.4918 16.0529 15.099 16.13 15.6701 15.9798C16.2413 15.8296 16.732 15.4638 17.039 14.9594C17.9223 13.3954 18.4162 11.6419 18.4788 9.84681C18.5282 8.05435 18.1474 6.27614 17.3684 4.66105C17.0744 4.16024 16.5977 3.79287 16.0384 3.6361C15.4543 3.48064 14.8326 3.55945 14.3058 3.85573C13.806 4.16693 13.4441 4.65754 13.2943 5.22698C13.1446 5.79642 13.2184 6.40157 13.5005 6.91838L13.5981 6.90618Z" fill="#3A5897"/>
<path d="M25.6516 19.0104C29.1827 19.0104 32.0453 14.7548 32.0453 9.5052C32.0453 4.25562 29.1827 0 25.6516 0C22.1204 0 19.2578 4.25562 19.2578 9.5052C19.2578 14.7548 22.1204 19.0104 25.6516 19.0104Z" fill="#F9F6E1"/>
<path d="M24.7986 6.90627C24.7986 6.97949 24.9938 7.34554 24.7986 7.00389C24.6034 6.66224 24.7986 7.00389 24.7986 7.00389C24.7986 7.00389 24.945 7.40655 25.006 7.61398C25.1178 8.01403 25.1993 8.4219 25.2501 8.83416L25.1769 8.23627C25.2745 9.01413 25.2745 9.80115 25.1769 10.579L25.2623 9.99333C25.1937 10.5319 25.0752 11.0629 24.9084 11.5796C24.9084 11.7016 24.823 11.8236 24.7742 11.9456C24.6034 12.4215 24.8962 11.7016 24.7742 11.9456C24.6522 12.1897 24.5302 12.4581 24.396 12.7021C24.1046 13.2169 24.0258 13.8251 24.1762 14.3971C24.3266 14.9692 24.6944 15.4599 25.2013 15.7648C25.7167 16.053 26.3239 16.1301 26.895 15.9799C27.4662 15.8297 27.9569 15.4639 28.2639 14.9595C29.142 13.3934 29.6355 11.6411 29.7037 9.84691C29.747 8.05501 29.3666 6.27822 28.5934 4.66114C28.2917 4.16208 27.8121 3.79585 27.2512 3.63619C26.7039 3.488 26.121 3.5489 25.6161 3.80702C25.1163 4.11822 24.7544 4.60882 24.6047 5.17826C24.455 5.74771 24.5287 6.35286 24.8108 6.86967L24.7986 6.90627Z" fill="#3A5897"/>
</g>
<g clip-path="url(#clip1_160_44)">
<path d="M31.3203 23.0016C26.9024 26.0498 24.1087 28.9193 19.7665 28.9193C15.4243 28.9193 12.636 26.0498 8.21261 23.0016C0.957604 17.9989 -4.24001 30.6464 4.80168 35.1943C9.30072 37.6049 14.3439 38.8186 19.447 38.7189C25.1157 38.7189 29.4037 37.3708 34.7367 35.1943C44.8179 31.0741 38.5808 17.9772 31.3203 23.0016Z" fill="#F9F6E1"/>
<mask id="mask0_160_44" style="mask-type:alpha" maskUnits="userSpaceOnUse" x="3" y="23" width="34" height="17">
<path d="M9.30193 23.8359C4.51579 26.8787 4.1747 31.6323 3.75781 34.7455" stroke="#959595" stroke-width="0.837541" stroke-linecap="round" stroke-linejoin="round"/>
<path d="M30.5254 23.8359C35.3061 26.8787 35.6526 31.6323 36.0695 34.7455" stroke="#959595" stroke-width="0.837541" stroke-linecap="round" stroke-linejoin="round"/>
<path d="M16.5625 27.3772C13.8879 30.0247 13.6659 36.0399 14.1099 38.9148" stroke="#959595" stroke-width="1.00005" stroke-linecap="round" stroke-linejoin="round"/>
<path d="M23.4453 27.4146C26.1903 29.9863 26.5801 36.0069 26.212 38.8818" stroke="#959595" stroke-width="1.00005" stroke-linecap="round" stroke-linejoin="round"/>
</mask>
<g mask="url(#mask0_160_44)">
<path d="M31.3223 23.0023C26.9043 26.0505 24.1106 28.92 19.7684 28.92C15.4263 28.92 12.638 26.0505 8.21456 23.0023C0.959557 17.9996 -4.23805 30.6471 4.80363 35.195C9.30267 37.6057 14.3458 38.8194 19.449 38.7197C25.1176 38.7197 29.4057 37.3715 34.7387 35.195C44.8199 31.0748 38.5827 17.978 31.3223 23.0023Z" fill="#3A5897"/>
</g>
</g>
<g clip-path="url(#clip2_160_44)">
<path d="M454.464 19.0104C457.995 19.0104 460.858 14.7548 460.858 9.5052C460.858 4.25562 457.995 0 454.464 0C450.933 0 448.07 4.25562 448.07 9.5052C448.07 14.7548 450.933 19.0104 454.464 19.0104Z" fill="#F9F6E1"/>
<path d="M453.598 6.90618C453.598 6.97939 453.806 7.34544 453.598 7.00379C453.391 6.66214 453.598 7.00379 453.598 7.00379C453.598 7.00379 453.732 7.40645 453.793 7.61388C453.909 8.01365 453.995 8.42152 454.05 8.83406L453.964 8.23617C454.068 9.01365 454.068 9.80145 453.964 10.5789L454.05 9.99323C453.971 10.5311 453.849 11.0616 453.683 11.5795C453.683 11.7015 453.61 11.8235 453.561 11.9455C453.378 12.4214 453.683 11.7015 453.561 11.9455C453.439 12.1896 453.317 12.458 453.171 12.702C452.883 13.2175 452.806 13.8246 452.956 14.3958C453.106 14.967 453.472 15.4576 453.976 15.7647C454.492 16.0529 455.099 16.13 455.67 15.9798C456.241 15.8296 456.732 15.4638 457.039 14.9594C457.922 13.3954 458.416 11.6419 458.479 9.84681C458.528 8.05435 458.147 6.27614 457.368 4.66105C457.074 4.16024 456.598 3.79287 456.038 3.6361C455.454 3.48064 454.833 3.55945 454.306 3.85573C453.806 4.16693 453.444 4.65754 453.294 5.22698C453.145 5.79642 453.218 6.40157 453.5 6.91838L453.598 6.90618Z" fill="#3A5897"/>
<path d="M465.652 19.0104C469.183 19.0104 472.045 14.7548 472.045 9.5052C472.045 4.25562 469.183 0 465.652 0C462.12 0 459.258 4.25562 459.258 9.5052C459.258 14.7548 462.12 19.0104 465.652 19.0104Z" fill="#F9F6E1"/>
<path d="M464.799 6.90627C464.799 6.97948 464.994 7.34554 464.799 7.00389C464.603 6.66224 464.799 7.00389 464.799 7.00389C464.799 7.00389 464.945 7.40655 465.006 7.61398C465.118 8.01403 465.199 8.4219 465.25 8.83416L465.177 8.23627C465.274 9.01413 465.274 9.80115 465.177 10.579L465.262 9.99333C465.194 10.5319 465.075 11.0629 464.908 11.5796C464.908 11.7016 464.823 11.8236 464.774 11.9456C464.603 12.4215 464.896 11.7016 464.774 11.9456C464.652 12.1897 464.53 12.4581 464.396 12.7021C464.105 13.2169 464.026 13.8251 464.176 14.3971C464.327 14.9692 464.694 15.4599 465.201 15.7648C465.717 16.053 466.324 16.1301 466.895 15.9799C467.466 15.8297 467.957 15.4639 468.264 14.9595C469.142 13.3934 469.635 11.6411 469.704 9.84691C469.747 8.05501 469.367 6.27822 468.593 4.66114C468.292 4.16208 467.812 3.79585 467.251 3.63619C466.704 3.488 466.121 3.5489 465.616 3.80702C465.116 4.11822 464.754 4.60882 464.605 5.17826C464.455 5.74771 464.529 6.35286 464.811 6.86967L464.799 6.90627Z" fill="#3A5897"/>
</g>
<g clip-path="url(#clip3_160_44)">
<path d="M471.32 23.0016C466.902 26.0498 464.109 28.9193 459.766 28.9193C455.424 28.9193 452.636 26.0498 448.213 23.0016C440.958 17.9989 435.76 30.6464 444.802 35.1943C449.301 37.6049 454.344 38.8186 459.447 38.7189C465.116 38.7189 469.404 37.3708 474.737 35.1943C484.818 31.0741 478.581 17.9772 471.32 23.0016Z" fill="#F9F6E1"/>
<mask id="mask1_160_44" style="mask-type:alpha" maskUnits="userSpaceOnUse" x="443" y="23" width="34" height="17">
<path d="M449.302 23.8359C444.516 26.8787 444.175 31.6323 443.758 34.7455" stroke="#959595" stroke-width="0.837541" stroke-linecap="round" stroke-linejoin="round"/>
<path d="M470.525 23.8359C475.306 26.8787 475.653 31.6323 476.07 34.7455" stroke="#959595" stroke-width="0.837541" stroke-linecap="round" stroke-linejoin="round"/>
<path d="M456.563 27.3772C453.888 30.0247 453.666 36.0399 454.11 38.9148" stroke="#959595" stroke-width="1.00005" stroke-linecap="round" stroke-linejoin="round"/>
<path d="M463.445 27.4146C466.19 29.9863 466.58 36.0069 466.212 38.8818" stroke="#959595" stroke-width="1.00005" stroke-linecap="round" stroke-linejoin="round"/>
</mask>
<g mask="url(#mask1_160_44)">
<path d="M471.322 23.0023C466.904 26.0505 464.111 28.92 459.768 28.92C455.426 28.92 452.638 26.0505 448.215 23.0023C440.96 17.9996 435.762 30.6471 444.804 35.195C449.303 37.6057 454.346 38.8194 459.449 38.7197C465.118 38.7197 469.406 37.3715 474.739 35.195C484.82 31.0748 478.583 17.978 471.322 23.0023Z" fill="#3A5897"/>
</g>
</g>
<path d="M74.8963 30V8.18182H83.5043C85.1591 8.18182 86.5689 8.49787 87.7337 9.12997C88.8984 9.75497 89.7862 10.625 90.397 11.7401C91.0149 12.848 91.3239 14.1264 91.3239 15.5753C91.3239 17.0241 91.0114 18.3026 90.3864 19.4105C89.7614 20.5185 88.8558 21.3814 87.6697 21.9993C86.4908 22.6172 85.0632 22.9261 83.3871 22.9261H77.9006V19.2294H82.6413C83.5291 19.2294 84.2607 19.0767 84.8359 18.7713C85.4183 18.4588 85.8516 18.0291 86.1357 17.4822C86.4268 16.9283 86.5724 16.2926 86.5724 15.5753C86.5724 14.8509 86.4268 14.2187 86.1357 13.679C85.8516 13.1321 85.4183 12.7095 84.8359 12.4112C84.2536 12.1058 83.5149 11.9531 82.62 11.9531H79.5092V30H74.8963ZM117.07 19.0909C117.07 21.4702 116.619 23.4943 115.717 25.1634C114.822 26.8324 113.6 28.1072 112.052 28.9879C110.511 29.8615 108.778 30.2983 106.853 30.2983C104.914 30.2983 103.174 29.858 101.633 28.9773C100.092 28.0966 98.8738 26.8217 97.9789 25.1527C97.0841 23.4837 96.6366 21.4631 96.6366 19.0909C96.6366 16.7116 97.0841 14.6875 97.9789 13.0185C98.8738 11.3494 100.092 10.0781 101.633 9.20455C103.174 8.32386 104.914 7.88352 106.853 7.88352C108.778 7.88352 110.511 8.32386 112.052 9.20455C113.6 10.0781 114.822 11.3494 115.717 13.0185C116.619 14.6875 117.07 16.7116 117.07 19.0909ZM112.393 19.0909C112.393 17.5497 112.162 16.25 111.701 15.1918C111.246 14.1335 110.603 13.331 109.772 12.7841C108.941 12.2372 107.968 11.9638 106.853 11.9638C105.738 11.9638 104.765 12.2372 103.934 12.7841C103.103 13.331 102.457 14.1335 101.995 15.1918C101.541 16.25 101.313 17.5497 101.313 19.0909C101.313 20.6321 101.541 21.9318 101.995 22.9901C102.457 24.0483 103.103 24.8509 103.934 25.3977C104.765 25.9446 105.738 26.218 106.853 26.218C107.968 26.218 108.941 25.9446 109.772 25.3977C110.603 24.8509 111.246 24.0483 111.701 22.9901C112.162 21.9318 112.393 20.6321 112.393 19.0909ZM127.278 30L121.035 8.18182H126.074L129.686 23.3416H129.867L133.851 8.18182H138.166L142.139 23.3736H142.331L145.943 8.18182H150.982L144.739 30H140.243L136.088 15.7351H135.918L131.774 30H127.278ZM156.151 30V8.18182H170.852V11.9851H160.764V17.1839H170.096V20.9872H160.764V26.1967H170.895V30H156.151ZM177.22 30V8.18182H185.828C187.475 8.18182 188.882 8.47656 190.046 9.06605C191.218 9.64844 192.11 10.4759 192.72 11.5483C193.338 12.6136 193.647 13.8672 193.647 15.3089C193.647 16.7578 193.335 18.0043 192.71 19.0483C192.085 20.0852 191.179 20.8807 189.993 21.4347C188.814 21.9886 187.387 22.2656 185.711 22.2656H179.947V18.5582H184.965C185.845 18.5582 186.577 18.4375 187.159 18.196C187.742 17.9545 188.175 17.5923 188.459 17.1094C188.75 16.6264 188.896 16.0263 188.896 15.3089C188.896 14.5845 188.75 13.9737 188.459 13.4766C188.175 12.9794 187.738 12.603 187.149 12.3473C186.566 12.0845 185.831 11.9531 184.943 11.9531H181.833V30H177.22ZM189.002 20.071L194.425 30H189.333L184.027 20.071H189.002ZM199.607 30V8.18182H214.309V11.9851H204.22V17.1839H213.553V20.9872H204.22V26.1967H214.352V30H199.607ZM228.411 30H220.676V8.18182H228.475C230.669 8.18182 232.558 8.61861 234.142 9.49219C235.726 10.3587 236.944 11.6051 237.796 13.2315C238.656 14.858 239.085 16.804 239.085 19.0696C239.085 21.3423 238.656 23.2955 237.796 24.929C236.944 26.5625 235.719 27.8161 234.121 28.6896C232.53 29.5632 230.627 30 228.411 30ZM225.289 26.0476H228.219C229.583 26.0476 230.73 25.8061 231.66 25.3232C232.598 24.8331 233.301 24.0767 233.769 23.054C234.245 22.0241 234.483 20.696 234.483 19.0696C234.483 17.4574 234.245 16.1399 233.769 15.1172C233.301 14.0945 232.601 13.3416 231.671 12.8587C230.74 12.3757 229.593 12.1342 228.23 12.1342H225.289V26.0476ZM254.846 30V8.18182H263.582C265.187 8.18182 266.526 8.41974 267.598 8.8956C268.67 9.37145 269.477 10.032 270.016 10.8771C270.556 11.7152 270.826 12.6811 270.826 13.7749C270.826 14.6271 270.656 15.3764 270.315 16.0227C269.974 16.6619 269.505 17.1875 268.908 17.5994C268.319 18.0043 267.644 18.2919 266.884 18.4624V18.6754C267.715 18.7109 268.493 18.9453 269.217 19.3786C269.949 19.8118 270.542 20.419 270.996 21.2003C271.451 21.9744 271.678 22.8977 271.678 23.9702C271.678 25.1278 271.391 26.1612 270.815 27.0703C270.247 27.9723 269.406 28.6861 268.291 29.2116C267.175 29.7372 265.801 30 264.168 30H254.846ZM259.459 26.2287H263.22C264.505 26.2287 265.443 25.9837 266.032 25.4936C266.621 24.9964 266.916 24.3359 266.916 23.5121C266.916 22.9084 266.771 22.3757 266.479 21.9141C266.188 21.4524 265.773 21.0902 265.233 20.8274C264.7 20.5646 264.065 20.4332 263.326 20.4332H259.459V26.2287ZM259.459 17.3118H262.879C263.511 17.3118 264.072 17.2017 264.562 16.9815C265.059 16.7543 265.45 16.4347 265.734 16.0227C266.025 15.6108 266.17 15.1172 266.17 14.5419C266.17 13.7536 265.89 13.1179 265.329 12.6349C264.775 12.152 263.987 11.9105 262.964 11.9105H259.459V17.3118ZM276.101 8.18182H281.268L286.244 17.5781H286.457L291.432 8.18182H296.599L288.641 22.2869V30H284.06V22.2869L276.101 8.18182ZM316.373 30L310.13 8.18182H315.169L318.78 23.3416H318.962L322.946 8.18182H327.261L331.234 23.3736H331.426L335.038 8.18182H340.077L333.834 30H329.338L325.183 15.7351H325.013L320.868 30H316.373ZM345.246 30V8.18182H359.947V11.9851H349.858V17.1839H359.191V20.9872H349.858V26.1967H359.99V30H345.246ZM366.315 30V8.18182H375.05C376.656 8.18182 377.994 8.41974 379.067 8.8956C380.139 9.37145 380.945 10.032 381.485 10.8771C382.025 11.7152 382.295 12.6811 382.295 13.7749C382.295 14.6271 382.124 15.3764 381.783 16.0227C381.443 16.6619 380.974 17.1875 380.377 17.5994C379.788 18.0043 379.113 18.2919 378.353 18.4624V18.6754C379.184 18.7109 379.962 18.9453 380.686 19.3786C381.418 19.8118 382.011 20.419 382.465 21.2003C382.92 21.9744 383.147 22.8977 383.147 23.9702C383.147 25.1278 382.859 26.1612 382.284 27.0703C381.716 27.9723 380.874 28.6861 379.759 29.2116C378.644 29.7372 377.27 30 375.636 30H366.315ZM370.928 26.2287H374.688C375.974 26.2287 376.911 25.9837 377.501 25.4936C378.09 24.9964 378.385 24.3359 378.385 23.5121C378.385 22.9084 378.239 22.3757 377.948 21.9141C377.657 21.4524 377.242 21.0902 376.702 20.8274C376.169 20.5646 375.533 20.4332 374.795 20.4332H370.928V26.2287ZM370.928 17.3118H374.347C374.979 17.3118 375.541 17.2017 376.031 16.9815C376.528 16.7543 376.918 16.4347 377.202 16.0227C377.494 15.6108 377.639 15.1172 377.639 14.5419C377.639 13.7536 377.359 13.1179 376.798 12.6349C376.244 12.152 375.455 11.9105 374.433 11.9105H370.928V17.3118ZM396.785 30.2983C395.195 30.2983 393.778 30.0249 392.535 29.478C391.299 28.924 390.322 28.1641 389.605 27.1982C388.895 26.2251 388.529 25.103 388.508 23.8317H393.153C393.181 24.3643 393.355 24.8331 393.675 25.2379C394.001 25.6357 394.435 25.9446 394.974 26.1648C395.514 26.3849 396.121 26.495 396.796 26.495C397.499 26.495 398.121 26.3707 398.66 26.1222C399.2 25.8736 399.623 25.5291 399.928 25.0888C400.234 24.6484 400.386 24.1406 400.386 23.5653C400.386 22.983 400.223 22.468 399.896 22.0206C399.577 21.5661 399.115 21.2109 398.511 20.9553C397.915 20.6996 397.204 20.5717 396.381 20.5717H394.346V17.1839H396.381C397.077 17.1839 397.691 17.0632 398.224 16.8217C398.763 16.5803 399.182 16.2464 399.481 15.8203C399.779 15.3871 399.928 14.8828 399.928 14.3075C399.928 13.7607 399.797 13.2813 399.534 12.8693C399.278 12.4503 398.916 12.1236 398.447 11.8892C397.986 11.6548 397.446 11.5376 396.828 11.5376C396.203 11.5376 395.631 11.6513 395.113 11.8786C394.594 12.0987 394.179 12.4148 393.866 12.8267C393.554 13.2386 393.387 13.7216 393.366 14.2756H388.945C388.966 13.0185 389.324 11.9105 390.021 10.9517C390.717 9.9929 391.654 9.24361 392.833 8.70383C394.019 8.15696 395.358 7.88352 396.849 7.88352C398.355 7.88352 399.673 8.15696 400.802 8.70383C401.931 9.25071 402.808 9.98935 403.433 10.9197C404.065 11.843 404.378 12.88 404.371 14.0305C404.378 15.2521 403.998 16.2713 403.231 17.0881C402.471 17.9048 401.48 18.4233 400.258 18.6435V18.8139C401.864 19.0199 403.085 19.5774 403.923 20.4865C404.768 21.3885 405.187 22.5178 405.18 23.8743C405.187 25.1172 404.829 26.2216 404.104 27.1875C403.387 28.1534 402.396 28.9134 401.132 29.4673C399.868 30.0213 398.419 30.2983 396.785 30.2983Z" fill="white"/>
<path d="M526.732 14.4567C526.647 13.5973 526.281 12.9297 525.635 12.4538C524.989 11.978 524.112 11.7401 523.004 11.7401C522.251 11.7401 521.615 11.8466 521.097 12.0597C520.578 12.2656 520.18 12.5533 519.903 12.9226C519.634 13.2919 519.499 13.7109 519.499 14.1797C519.484 14.5703 519.566 14.9112 519.744 15.2024C519.928 15.4936 520.18 15.7457 520.5 15.9588C520.82 16.1648 521.189 16.3459 521.608 16.5021C522.027 16.6513 522.474 16.7791 522.95 16.8857L524.911 17.3544C525.862 17.5675 526.736 17.8516 527.531 18.2067C528.327 18.5618 529.016 18.9986 529.598 19.517C530.18 20.0355 530.631 20.6463 530.951 21.3494C531.278 22.0526 531.445 22.8587 531.452 23.7678C531.445 25.103 531.104 26.2607 530.429 27.2408C529.761 28.2138 528.795 28.9702 527.531 29.5099C526.274 30.0426 524.758 30.3089 522.982 30.3089C521.221 30.3089 519.687 30.0391 518.38 29.4993C517.08 28.9595 516.065 28.1605 515.333 27.1023C514.609 26.0369 514.229 24.7195 514.193 23.1499H518.657C518.707 23.8814 518.916 24.4922 519.286 24.9822C519.662 25.4652 520.163 25.831 520.788 26.0795C521.42 26.321 522.134 26.4418 522.929 26.4418C523.71 26.4418 524.388 26.3281 524.964 26.1009C525.546 25.8736 525.997 25.5575 526.317 25.1527C526.636 24.7479 526.796 24.2827 526.796 23.7571C526.796 23.267 526.651 22.8551 526.359 22.5213C526.075 22.1875 525.656 21.9034 525.102 21.669C524.555 21.4347 523.884 21.2216 523.089 21.0298L520.713 20.4332C518.874 19.9858 517.421 19.2862 516.356 18.3345C515.29 17.3828 514.761 16.1009 514.768 14.4886C514.761 13.1676 515.113 12.0135 515.823 11.0263C516.54 10.0391 517.524 9.26847 518.774 8.71449C520.024 8.16051 521.445 7.88352 523.036 7.88352C524.655 7.88352 526.068 8.16051 527.276 8.71449C528.49 9.26847 529.435 10.0391 530.109 11.0263C530.784 12.0135 531.132 13.157 531.153 14.4567H526.732ZM541.867 8.18182V30H537.255V8.18182H541.867ZM548.363 8.18182H554.052L560.06 22.8409H560.316L566.324 8.18182H572.013V30H567.539V15.799H567.358L561.711 29.8935H558.665L553.018 15.7457H552.837V30H548.363V8.18182ZM578.514 30V8.18182H587.122C588.777 8.18182 590.186 8.49787 591.351 9.12997C592.516 9.75497 593.404 10.625 594.015 11.7401C594.632 12.848 594.941 14.1264 594.941 15.5753C594.941 17.0241 594.629 18.3026 594.004 19.4105C593.379 20.5185 592.473 21.3814 591.287 21.9993C590.108 22.6172 588.681 22.9261 587.005 22.9261H581.518V19.2294H586.259C587.147 19.2294 587.878 19.0767 588.454 18.7713C589.036 18.4588 589.469 18.0291 589.753 17.4822C590.044 16.9283 590.19 16.2926 590.19 15.5753C590.19 14.8509 590.044 14.2187 589.753 13.679C589.469 13.1321 589.036 12.7095 588.454 12.4112C587.871 12.1058 587.132 11.9531 586.238 11.9531H583.127V30H578.514ZM600.638 30V8.18182H605.251V26.1967H614.604V30H600.638ZM616.298 8.18182H621.464L626.44 17.5781H626.653L631.628 8.18182H636.795L628.837 22.2869V30H624.256V22.2869L616.298 8.18182ZM663.494 14.4567C663.408 13.5973 663.043 12.9297 662.396 12.4538C661.75 11.978 660.873 11.7401 659.765 11.7401C659.012 11.7401 658.376 11.8466 657.858 12.0597C657.339 12.2656 656.942 12.5533 656.665 12.9226C656.395 13.2919 656.26 13.7109 656.26 14.1797C656.246 14.5703 656.327 14.9112 656.505 15.2024C656.69 15.4936 656.942 15.7457 657.261 15.9588C657.581 16.1648 657.95 16.3459 658.369 16.5021C658.788 16.6513 659.236 16.7791 659.712 16.8857L661.672 17.3544C662.624 17.5675 663.497 17.8516 664.293 18.2067C665.088 18.5618 665.777 18.9986 666.359 19.517C666.942 20.0355 667.393 20.6463 667.712 21.3494C668.039 22.0526 668.206 22.8587 668.213 23.7678C668.206 25.103 667.865 26.2607 667.19 27.2408C666.523 28.2138 665.557 28.9702 664.293 29.5099C663.035 30.0426 661.519 30.3089 659.744 30.3089C657.982 30.3089 656.448 30.0391 655.141 29.4993C653.842 28.9595 652.826 28.1605 652.094 27.1023C651.37 26.0369 650.99 24.7195 650.955 23.1499H655.418C655.468 23.8814 655.678 24.4922 656.047 24.9822C656.423 25.4652 656.924 25.831 657.549 26.0795C658.181 26.321 658.895 26.4418 659.69 26.4418C660.472 26.4418 661.15 26.3281 661.725 26.1009C662.307 25.8736 662.758 25.5575 663.078 25.1527C663.398 24.7479 663.557 24.2827 663.557 23.7571C663.557 23.267 663.412 22.8551 663.121 22.5213C662.837 22.1875 662.418 21.9034 661.864 21.669C661.317 21.4347 660.646 21.2216 659.85 21.0298L657.474 20.4332C655.635 19.9858 654.182 19.2862 653.117 18.3345C652.052 17.3828 651.523 16.1009 651.53 14.4886C651.523 13.1676 651.874 12.0135 652.584 11.0263C653.302 10.0391 654.285 9.26847 655.535 8.71449C656.785 8.16051 658.206 7.88352 659.797 7.88352C661.416 7.88352 662.83 8.16051 664.037 8.71449C665.251 9.26847 666.196 10.0391 666.871 11.0263C667.545 12.0135 667.893 13.157 667.915 14.4567H663.494ZM674.016 30V8.18182H682.624C684.279 8.18182 685.688 8.49787 686.853 9.12997C688.018 9.75497 688.906 10.625 689.517 11.7401C690.134 12.848 690.443 14.1264 690.443 15.5753C690.443 17.0241 690.131 18.3026 689.506 19.4105C688.881 20.5185 687.975 21.3814 686.789 21.9993C685.61 22.6172 684.183 22.9261 682.507 22.9261H677.02V19.2294H681.761C682.649 19.2294 683.38 19.0767 683.955 18.7713C684.538 18.4588 684.971 18.0291 685.255 17.4822C685.546 16.9283 685.692 16.2926 685.692 15.5753C685.692 14.8509 685.546 14.2187 685.255 13.679C684.971 13.1321 684.538 12.7095 683.955 12.4112C683.373 12.1058 682.634 11.9531 681.74 11.9531H678.629V30H674.016ZM696.14 30V8.18182H704.748C706.395 8.18182 707.802 8.47656 708.966 9.06605C710.138 9.64844 711.03 10.4759 711.64 11.5483C712.258 12.6136 712.567 13.8672 712.567 15.3089C712.567 16.7578 712.255 18.0043 711.63 19.0483C711.005 20.0852 710.099 20.8807 708.913 21.4347C707.734 21.9886 706.307 22.2656 704.63 22.2656H698.867V18.5582H703.885C704.765 18.5582 705.497 18.4375 706.079 18.196C706.662 17.9545 707.095 17.5923 707.379 17.1094C707.67 16.6264 707.816 16.0263 707.816 15.3089C707.816 14.5845 707.67 13.9737 707.379 13.4766C707.095 12.9794 706.658 12.603 706.069 12.3473C705.486 12.0845 704.751 11.9531 703.863 11.9531H700.753V30H696.14ZM707.922 20.071L713.345 30H708.253L702.947 20.071H707.922ZM718.527 30V8.18182H733.229V11.9851H723.14V17.1839H732.472V20.9872H723.14V26.1967H733.271V30H718.527ZM743.357 30H738.414L745.946 8.18182H751.89L759.412 30H754.468L749.003 13.1676H748.833L743.357 30ZM743.048 21.424H754.724V25.0249H743.048V21.424ZM772.472 30H764.738V8.18182H772.536C774.731 8.18182 776.62 8.61861 778.204 9.49219C779.787 10.3587 781.005 11.6051 781.858 13.2315C782.717 14.858 783.147 16.804 783.147 19.0696C783.147 21.3423 782.717 23.2955 781.858 24.929C781.005 26.5625 779.78 27.8161 778.182 28.6896C776.591 29.5632 774.688 30 772.472 30ZM769.351 26.0476H772.28C773.644 26.0476 774.791 25.8061 775.721 25.3232C776.659 24.8331 777.362 24.0767 777.831 23.054C778.307 22.0241 778.545 20.696 778.545 19.0696C778.545 17.4574 778.307 16.1399 777.831 15.1172C777.362 14.0945 776.662 13.3416 775.732 12.8587C774.802 12.3757 773.655 12.1342 772.291 12.1342H769.351V26.0476ZM793.877 8.18182V30H789.264V8.18182H793.877ZM818.621 8.18182V30H814.637L805.145 16.2678H804.985V30H800.372V8.18182H804.42L813.838 21.9034H814.03V8.18182H818.621ZM839.6 15.2344C839.451 14.7159 839.241 14.2578 838.971 13.8601C838.702 13.4553 838.371 13.1143 837.981 12.8374C837.597 12.5533 837.157 12.3366 836.66 12.1875C836.17 12.0384 835.626 11.9638 835.03 11.9638C833.915 11.9638 832.934 12.2408 832.089 12.7947C831.251 13.3487 830.598 14.1548 830.129 15.2131C829.66 16.2642 829.426 17.5497 829.426 19.0696C829.426 20.5895 829.657 21.8821 830.118 22.9474C830.58 24.0128 831.233 24.826 832.079 25.3871C832.924 25.9411 833.922 26.218 835.072 26.218C836.116 26.218 837.008 26.0334 837.746 25.6641C838.492 25.2876 839.06 24.7585 839.451 24.0767C839.849 23.3949 840.047 22.5888 840.047 21.6584L840.985 21.7969H835.36V18.3239H844.49V21.0724C844.49 22.9901 844.085 24.6378 843.275 26.0156C842.466 27.3864 841.351 28.4446 839.93 29.1903C838.51 29.929 836.883 30.2983 835.051 30.2983C833.006 30.2983 831.209 29.8473 829.66 28.9453C828.112 28.0362 826.905 26.7472 826.038 25.0781C825.179 23.402 824.749 21.4134 824.749 19.1122C824.749 17.3437 825.005 15.767 825.516 14.3821C826.035 12.9901 826.759 11.8111 827.689 10.8452C828.62 9.87926 829.703 9.14418 830.939 8.63991C832.175 8.13565 833.513 7.88352 834.955 7.88352C836.191 7.88352 837.341 8.06463 838.407 8.42685C839.472 8.78196 840.417 9.28622 841.241 9.93963C842.072 10.593 842.75 11.3707 843.275 12.2727C843.801 13.1676 844.138 14.1548 844.287 15.2344H839.6ZM872.134 14.4567C872.049 13.5973 871.683 12.9297 871.037 12.4538C870.391 11.978 869.513 11.7401 868.405 11.7401C867.653 11.7401 867.017 11.8466 866.499 12.0597C865.98 12.2656 865.582 12.5533 865.305 12.9226C865.035 13.2919 864.901 13.7109 864.901 14.1797C864.886 14.5703 864.968 14.9112 865.146 15.2024C865.33 15.4936 865.582 15.7457 865.902 15.9588C866.222 16.1648 866.591 16.3459 867.01 16.5021C867.429 16.6513 867.876 16.7791 868.352 16.8857L870.312 17.3544C871.264 17.5675 872.138 17.8516 872.933 18.2067C873.729 18.5618 874.418 18.9986 875 19.517C875.582 20.0355 876.033 20.6463 876.353 21.3494C876.68 22.0526 876.847 22.8587 876.854 23.7678C876.847 25.103 876.506 26.2607 875.831 27.2408C875.163 28.2138 874.197 28.9702 872.933 29.5099C871.676 30.0426 870.16 30.3089 868.384 30.3089C866.623 30.3089 865.089 30.0391 863.782 29.4993C862.482 28.9595 861.467 28.1605 860.735 27.1023C860.011 26.0369 859.631 24.7195 859.595 23.1499H864.059C864.109 23.8814 864.318 24.4922 864.687 24.9822C865.064 25.4652 865.565 25.831 866.19 26.0795C866.822 26.321 867.535 26.4418 868.331 26.4418C869.112 26.4418 869.79 26.3281 870.366 26.1009C870.948 25.8736 871.399 25.5575 871.719 25.1527C872.038 24.7479 872.198 24.2827 872.198 23.7571C872.198 23.267 872.053 22.8551 871.761 22.5213C871.477 22.1875 871.058 21.9034 870.504 21.669C869.957 21.4347 869.286 21.2216 868.491 21.0298L866.115 20.4332C864.276 19.9858 862.823 19.2862 861.758 18.3345C860.692 17.3828 860.163 16.1009 860.17 14.4886C860.163 13.1676 860.515 12.0135 861.225 11.0263C861.942 10.0391 862.926 9.26847 864.176 8.71449C865.426 8.16051 866.847 7.88352 868.437 7.88352C870.057 7.88352 871.47 8.16051 872.678 8.71449C873.892 9.26847 874.837 10.0391 875.511 11.0263C876.186 12.0135 876.534 13.157 876.555 14.4567H872.134ZM882.656 8.18182H888.345L894.354 22.8409H894.61L900.618 8.18182H906.307V30H901.833V15.799H901.651L896.005 29.8935H892.958L887.312 15.7457H887.131V30H882.656V8.18182ZM917.421 8.18182V30H912.808V8.18182H917.421ZM923.916 30V8.18182H928.529V26.1967H937.882V30H923.916ZM943.637 30V8.18182H958.339V11.9851H948.25V17.1839H957.583V20.9872H948.25V26.1967H958.382V30H943.637ZM976.542 14.4567C976.457 13.5973 976.091 12.9297 975.445 12.4538C974.799 11.978 973.922 11.7401 972.814 11.7401C972.061 11.7401 971.425 11.8466 970.907 12.0597C970.388 12.2656 969.991 12.5533 969.714 12.9226C969.444 13.2919 969.309 13.7109 969.309 14.1797C969.295 14.5703 969.376 14.9112 969.554 15.2024C969.738 15.4936 969.991 15.7457 970.31 15.9588C970.63 16.1648 970.999 16.3459 971.418 16.5021C971.837 16.6513 972.285 16.7791 972.76 16.8857L974.721 17.3544C975.672 17.5675 976.546 17.8516 977.341 18.2067C978.137 18.5618 978.826 18.9986 979.408 19.517C979.991 20.0355 980.442 20.6463 980.761 21.3494C981.088 22.0526 981.255 22.8587 981.262 23.7678C981.255 25.103 980.914 26.2607 980.239 27.2408C979.572 28.2138 978.606 28.9702 977.341 29.5099C976.084 30.0426 974.568 30.3089 972.792 30.3089C971.031 30.3089 969.497 30.0391 968.19 29.4993C966.89 28.9595 965.875 28.1605 965.143 27.1023C964.419 26.0369 964.039 24.7195 964.003 23.1499H968.467C968.517 23.8814 968.726 24.4922 969.096 24.9822C969.472 25.4652 969.973 25.831 970.598 26.0795C971.23 26.321 971.944 26.4418 972.739 26.4418C973.52 26.4418 974.199 26.3281 974.774 26.1009C975.356 25.8736 975.807 25.5575 976.127 25.1527C976.447 24.7479 976.606 24.2827 976.606 23.7571C976.606 23.267 976.461 22.8551 976.17 22.5213C975.885 22.1875 975.466 21.9034 974.912 21.669C974.366 21.4347 973.694 21.2216 972.899 21.0298L970.523 20.4332C968.684 19.9858 967.231 19.2862 966.166 18.3345C965.101 17.3828 964.572 16.1009 964.579 14.4886C964.572 13.1676 964.923 12.0135 965.633 11.0263C966.351 10.0391 967.334 9.26847 968.584 8.71449C969.834 8.16051 971.255 7.88352 972.846 7.88352C974.465 7.88352 975.878 8.16051 977.086 8.71449C978.3 9.26847 979.245 10.0391 979.92 11.0263C980.594 12.0135 980.942 13.157 980.964 14.4567H976.542Z" fill="white"/>
<defs>
<clipPath id="clip0_160_44">
<rect width="23.9765" height="19.0104" fill="white" transform="translate(8.07031)"/>
</clipPath>
<clipPath id="clip1_160_44">
<rect width="40" height="17.7152" fill="white" transform="translate(0 21.8488)"/>
</clipPath>
<clipPath id="clip2_160_44">
<rect width="23.9765" height="19.0104" fill="white" transform="translate(448.07)"/>
</clipPath>
<clipPath id="clip3_160_44">
<rect width="40" height="17.7152" fill="white" transform="translate(440 21.8488)"/>
</clipPath>
</defs>
</svg>
